# xmcd
# Copyright (C) 1995-1998 Ti Kan
#
# Track frame offsets:
#       150
#       14212
#       33075
#       52135
#       66260
#       78975
#       101250
#       119512
#       139387
#       156760
#       179100
#       191347
#       205200
#       218860
#       232650
#       248562
#
# Disc length: 3500 seconds
#
# Revision: 0
# Processed by: cddbd v1.5.1PL0 Copyright (c) Steve Scherf et al.
# Submitted via: CD-Transfer v1.0
#
DISCID=e20daa10
DTITLE=Poker Alice - Rough
DYEAR=2005
DGENRE=
TTITLE0=The Train
TTITLE1=Lights In The Valley
TTITLE2=Wash My Tears Away
TTITLE3=Bird's Cage
TTITLE4=Living In The Lights
TTITLE5=The Long Road
TTITLE6=September
TTITLE7=Love Affair
TTITLE8=Shot Of A Criminal
TTITLE9=Tucson
TTITLE10=Sunshine
TTITLE11=Take Another Ride
TTITLE12=The Train (Remix)
TTITLE13=The Train (Album Edit)
TTITLE14=Shot Of A Criminal (Single Edit)
TTITLE15=The Train (Karaoke Edit)
EXTD=
EXTT0=
EXTT1=
EXTT2=
EXTT3=
EXTT4=
EXTT5=
EXTT6=
EXTT7=
EXTT8=
EXTT9=
EXTT10=
EXTT11=
EXTT12=
EXTT13=
EXTT14=
EXTT15=
PLAYORDER=
